<?xml version="1.0" encoding="UTF-8"?> <!-- Generator: Adobe Illustrator 22.0.1, SVG Export Plug-In . SVG Version: 6.00 Build 0) --> <svg xmlns="http://www.w3.org/2000/svg" xmlns:xlink="http://www.w3.org/1999/xlink" id="Layer_1" x="0px" y="0px" viewBox="0 0 600 200" style="enable-background:new 0 0 600 200;" xml:space="preserve"> <style type="text/css"> .st0{fill:#DBDDDD;} .st1{fill:#231F20;} .st2{fill:#D96826;} .st3{fill:#E0E1E0;} .st4{fill:#361F17;} .st5{fill:#F18321;} .st6{fill:#FAA62A;} .st7{fill:#FFCA67;} .st8{fill:#FEC263;} .st9{fill:#FFFFFF;} .st10{fill:#D25E27;} .st11{fill:#C6C8CB;} .st12{fill:#D7DE27;} .st13{fill:#ABB437;} .st14{fill:#65493E;} .st15{enable-background:new ;} .st16{fill:#010101;} </style> <g> <path class="st0" d="M158.6,159.4c0,2.8-32.6,5.2-72.8,5.2s-72.8-2.3-72.8-5.2c0-2.8,32.6-5.2,72.8-5.2S158.6,156.6,158.6,159.4z"></path> <g> <path class="st1" d="M149.6,83.1c0,3.9-3.6,7-8,7c-4.4,0-8-3.1-8-7c0-3.9,3.6-7,8-7C146.1,76.1,149.6,79.2,149.6,83.1z"></path> <path class="st2" d="M77.8,122.5c0,0-2.4,10.2-11.5,12.2c-9.1,1.9-15,2.1-21.3,7.7c-6.2,5.6-14.1-1.5,0-14.7 C59.1,114.4,75.2,119.2,77.8,122.5z"></path> <path class="st3" d="M44.6,128c-13.5,13-5.8,19.9,0.4,14.3c3.1-2.8,6.2-4.2,9.6-5.2C49.9,135.3,46.3,132,44.6,128z"></path> <path class="st4" d="M40.6,146.2c-2.3,0-4.2-1.2-5-3.3c-0.8-2-1.6-7.6,8-16.7c8.2-7.7,16.5-9.3,22.2-9.3c6.6,0,11.8,2.2,13.5,4.4 c0.3,0.5,0.5,1,0.3,1.6c-0.1,0.5-2.8,11.4-13,13.6c-1.6,0.3-3.1,0.6-4.5,0.9c-6.7,1.2-11.1,2.1-15.9,6.3 C44.5,145.3,42.5,146.2,40.6,146.2z M65.8,120.8c-4.9,0-12.3,1.4-19.5,8.3c-6.9,6.5-7.7,10.9-7.1,12.5c0.1,0.2,0.3,0.9,1.4,0.9 c0.9,0,2-0.5,3.1-1.5c5.6-5,10.9-6,17.7-7.2c1.4-0.3,2.9-0.6,4.5-0.9c6.2-1.3,8.9-7.2,9.7-9.7C74.1,122.1,70.5,120.8,65.8,120.8z"></path> <path class="st2" d="M59.7,91.2c-9.3-0.2-17.7-8-19.6-18.9c-1.1-6.5,0.3-12.7,3.4-17.3c-8.8,4.9-14.1,15-12.2,25.6 c2.3,13.3,15,22.2,28.3,19.9c0.4-0.1,0.8-0.2,1.2-0.3L59.7,91.2z"></path> <path class="st5" d="M58.9,96.6l-0.6-5c-9.3-0.2-17.7-8-19.6-18.9c-1.1-6.5,0.3-12.7,3.4-17.3c-0.6,0.3-1.1,0.7-1.7,1.1 c-4.5,5.3-6.8,12.6-5.5,20C37,88.3,47.2,96.6,58.9,96.6z"></path> <path class="st4" d="M55.3,102.6c-12.8,0-23.7-9.2-25.9-21.8c-1.9-11.1,3.4-22.1,13.2-27.6c0.8-0.4,1.7-0.3,2.4,0.4 c0.6,0.7,0.7,1.6,0.2,2.4c-3,4.5-4.1,10.3-3.1,16c1.7,9.8,9.2,17.1,17.8,17.3c1,0,1.7,0.8,1.9,1.7l1,8.9c0.1,1-0.5,1.9-1.5,2.1 c-0.7,0.2-1,0.2-1.3,0.3C58.3,102.5,56.8,102.6,55.3,102.6z M38.6,61.2c-4.5,5-6.7,12-5.5,18.9C35,90.9,44.4,98.8,55.3,98.8 c1.1,0,2.2-0.1,3.3-0.2L58,92.9c-9.7-1.1-17.9-9.4-19.8-20.4C37.5,68.7,37.7,64.8,38.6,61.2z"></path> <g> <path class="st5" d="M114.1,53.1c0,0-8.1-1-14.1-9.2c-4.1-5.7-11.6-5.2-9.1,6.2c2.5,11.4,10.2,14.8,12.8,14.2 C106.3,63.7,114.1,53.1,114.1,53.1z"></path> <path class="st4" d="M103.1,66.3L103.1,66.3c-4.4,0-11.7-4.9-14-15.8c-1.2-5.7-0.1-8.6,1.1-10.1c2.6-3.3,8.2-2.1,11.4,2.4 c5.4,7.5,12.7,8.4,12.8,8.4c0.7,0.1,1.3,0.5,1.5,1.1c0.3,0.6,0.2,1.4-0.2,1.9c-3.1,4.2-8.6,11.2-11.5,11.9 C103.8,66.2,103.4,66.3,103.1,66.3z M94.3,42.3c-0.5,0-0.9,0.2-1.2,0.6c-0.4,0.5-1.3,2.3-0.3,6.9c2.1,9.5,7.9,12.7,10.3,12.7 c0.1,0,0.2,0,0.2,0c1.1-0.4,4.5-4.2,7.5-8.1c-3.2-1.1-8.3-3.5-12.4-9.2C96.9,43,95.2,42.3,94.3,42.3z"></path> </g> <path class="st2" d="M127.8,93.8c0,0,16.9,2,24.7,9.5c7.8,7.5,6.2,17.7-7.6,11.6c-13.8-6-27.5-4.6-27.5-4.6"></path> <path class="st3" d="M152.5,103.4c-5.2-5-14.3-7.5-19.9-8.7c3.9,1.4,5.7,2.6,8.7,5c6.1,4.6,6,12-0.7,12.1c0.7,0.3,3.6,2.9,4.3,3.3 C158.7,121,160.3,110.9,152.5,103.4z"></path> <path class="st4" d="M152.1,118.7c-2,0-4.6-0.5-7.9-2c-13.1-5.8-26.4-4.5-26.5-4.5c-1.1,0.1-2-0.7-2.1-1.7c-0.1-1,0.7-2,1.7-2.1 c0.6-0.1,14.4-1.4,28.5,4.8c5.4,2.4,8.3,1.9,9.2,0.6c1.1-1.6,0-5.6-3.7-9.1c-7.2-7-23.4-9-23.6-9c-1-0.1-1.8-1.1-1.7-2.2 c0.1-1,1.1-1.8,2.2-1.7c0.7,0.1,17.6,2.2,25.8,10.1c4.9,4.7,6.6,10.5,4.2,14C157.3,117,155.7,118.7,152.1,118.7z"></path> <path class="st6" d="M106.4,58.5c0,0,2.9-8.2,14.6-7.5c11.7,0.6,11.8,6.6,22.2,4.6s16.3-4.5,19-1.8c2.7,2.7,6.6,11.8,3.2,19 c-3.4,7.2-11.7,9.1-17.8,8.6c-2.2-0.2-4.3-0.6-6.4-1.4c-1.9-0.7-4.2-1.7-4.3,1.3c-0.1,3,3,6.2,4.4,7.3l12.3,11.6 c0,0-1.4,3.9-7.7,2.4c-6.3-1.5-17.4-0.9-21.4,5.5s-6.7,22.1-27.5,20.5c-20.8-1.6-23.3-8.5-35.8-2.3c-12.5,6.2-16,0-25.9,5 c-9.9,5-10.7,10.4-16.8,10.9c-6.1,0.5-5.8-13.6,2.7-20.5s10.9-4.8,19.8-17.9C50.2,90.8,61,89.7,68.7,89.7 c11.5,0,21.4-5.1,25.3-12.5c0,0-11.8,6.4-24.9-1.8s-10.2-19-4.3-20.2c5.9-1.1,12.3,5.7,19,3.5C90.9,56.5,101.8,51.8,106.4,58.5z"></path> <path class="st7" d="M106.3,58.9c0,0.6,0.2,1,1.1,0.5c0.9-0.6,1.7-1.8,2.6-2.4c3-2.1,6.8-2.7,10.4-2.5c11.7,0.6,11.8,6.6,22.2,4.6 c10.4-1.9,16.3-4.5,19-1.8c1.9,1.9,4.2,6.8,4.4,12c1-6.3-2-13-4.3-15.3c-2.7-2.7-8.6-0.2-19,1.8c-10.4,1.9-10.5-4-22.2-4.6 c-4.1-0.2-8.4,0.7-11.5,3.4c-0.9,0.8-1.7,1.7-2.3,2.7C106.5,57.7,106.3,58.4,106.3,58.9z"></path> <path class="st8" d="M137.3,83.2c-0.3,0.3-0.5,0.8-0.5,1.6c-0.1,3,3,6.2,4.4,7.3l10.9,10.2c1.3-0.8,1.7-1.8,1.7-1.8l-12.3-11.6 C140.3,88,138.1,85.6,137.3,83.2z"></path> <path class="st8" d="M21.2,125.1c8.5-6.9,10.9-4.8,19.8-17.9c8.9-13.1,19.8-14.3,27.5-14.3c11.5,0,21.4-5.1,25.3-12.5 c0,0-1.2,0.6-3.3,1.2c-4.9,4.9-12.9,8-21.9,8c-7.7,0-18.6,1.1-27.5,14.3c-8.9,13.1-11.4,11-19.8,17.9c-5,4-7.1,10.5-6.8,15.1 C15.1,132.9,17.3,128.2,21.2,125.1z"></path> <path class="st5" d="M151.9,100c-4.2-2.3-11.9-4.2-23.4-3.2c-11.6,1-19.1-0.6-24.1-11.4c-1.4-3-1.7-6.3-1.6-9.6 c0.1-1.6,0.3-3.3,0.6-4.9c0.4-2.2,1.4-4.2,0.6-6.4c-1-2.9-4.2-3.6-7-3.6c-2.5,0-5.1,0.5-7.5,1.1c-2.4,0.7-4.6,1.6-7.1,1.9 c-3.8,0.6-7-0.9-10.4-2.3c-2.6-1.1-5.6-1.9-8.4-1.4c-1.1,0.2-0.9,0.8-1.7,1.6l-1-3.7c-2.4,4-1.3,11.3,8.2,17.3 c13.1,8.2,24.9,1.8,24.9,1.8c-3.9,7.4-13.8,12.5-25.3,12.5c-7.7,0-18.6,1.1-27.5,14.3c-8.9,13.1-11.4,11-19.8,17.9 c-8.5,6.9-8.8,21-2.7,20.5c6.1-0.5,6.9-5.9,16.8-10.9c9.9-5,13.5,1.3,25.9-5c12.5-6.2,15,0.6,35.8,2.3 c20.8,1.6,23.5-14.1,27.5-20.5s15.1-7,21.4-5.5c0.3,0.1,0.5,0.1,0.7,0.1C150.6,102.2,154,101.2,151.9,100z"></path> <path class="st2" d="M25,119.1c-1.1,0.8-2.3,1.6-3.7,2.7c-8.5,6.9-8.8,21-2.7,20.5c1.8-0.1,4.3-0.8,5.7-1.9 c1.9-1.5,3.2-3.4,5.4-4.7c4.3-2.6,8.7-4.9,13.7-5.6c4.1-0.6,10.6,1.2,14-2.4c1.7-1.8-1.1-2.6-2.6-3c-4.9-1.2-9.3-4.4-9.3-10 c0-9.9,7.6-18.6,16.4-22c2.3-0.9,4.8-1.5,7.2-1.7c0.9-0.1,6.5,0,6.2-1.2c-0.3-1.2-5.9-0.2-6.8-0.2c-7.7,0-18.6,1.1-27.5,14.3 C33.6,115,30.8,115.3,25,119.1z"></path> <path class="st3" d="M25,119.7c0-0.2-0.1-0.3-0.1-0.5c-1.1,0.7-2.3,1.6-3.6,2.7c-8.5,6.9-8.8,21-2.7,20.5 c6.1-0.5,6.9-5.9,16.8-10.9c1.1-0.6,2.2-1,3.1-1.3l0.6-1.2C32.1,128.6,26.4,125.1,25,119.7z"></path> <path class="st5" d="M106.8,57.7c0.1-0.2,0.2-0.3,0.3-0.5C107,57.3,106.9,57.5,106.8,57.7z"></path> <path class="st5" d="M106.6,58.2c0-0.1,0.1-0.2,0.2-0.3C106.7,58,106.6,58.1,106.6,58.2z"></path> <path class="st5" d="M107.6,56.5C107.6,56.5,107.6,56.5,107.6,56.5c-0.1,0.1-0.2,0.3-0.3,0.5C107.4,56.8,107.5,56.7,107.6,56.5z"></path> <path class="st5" d="M62.4,56.4c-0.3,0.2-0.6,0.5-0.9,0.8C61.8,56.9,62.1,56.6,62.4,56.4z"></path> <path class="st5" d="M106.4,58.5c0,0,0-0.1,0.1-0.2C106.5,58.5,106.4,58.5,106.4,58.5z"></path> <path class="st5" d="M60.8,58.2c0.2-0.4,0.5-0.7,0.8-1C61.3,57.5,61,57.8,60.8,58.2z"></path> <path class="st5" d="M62.5,56.3c0.3-0.2,0.6-0.4,0.9-0.5C63.1,55.9,62.7,56.1,62.5,56.3z"></path> <path class="st5" d="M63.5,55.7c0.3-0.2,0.7-0.3,1.1-0.3C64.3,55.4,63.9,55.5,63.5,55.7z"></path> <path class="st9" d="M77.5,125.1c3.7,0.9,8.1,2.3,14.6,3.2C85.6,126.8,81.6,125.2,77.5,125.1z"></path> <path class="st10" d="M85.3,69.9c-0.5,0.1-1,0.2-1.5,0.2c-6,0.8-12.5-0.3-17.2-4.3c-1.2-1-2.3-2.3-3.1-3.6 c-0.8-1.4-1.7-4.1-1.2-5.8c-4,3.2-4.4,12.1,6.8,19c4.6,2.8,9.9,4.4,15.3,4.1c2.2-0.1,4.5-0.3,6.7-1c1.6-0.5,2.6-0.7,3.7-2 c1.3-1.4,2.5-3.5,2.8-5.4c0.6-3.8-3.9-3.5-6.2-2.8C89.3,69,87.3,69.6,85.3,69.9z"></path> <path class="st4" d="M83.2,81.5c-5.3,0-10.5-1.5-15.2-4.4c-8.4-5.2-10-11-10.2-14c-0.2-3.2,1-6.2,3.3-8c0.7-0.5,1.6-0.6,2.3-0.1 c0.7,0.5,1,1.3,0.8,2.1c-0.2,0.9,0.2,2.9,1,4.3c0.6,1.1,1.5,2.2,2.6,3.1c4.1,3.3,9,4.1,12.5,4.1c1.1,0,2.2-0.1,3.3-0.2 c0.5-0.1,0.9-0.1,1.4-0.2c1.7-0.3,3.5-0.7,5.8-1.4c0.6-0.2,1.9-0.5,3.3-0.5c2.4,0,3.7,0.9,4.4,1.7c0.6,0.7,1.2,1.9,0.9,3.7 c-0.4,2.5-1.9,5-3.3,6.4c-1.5,1.5-2.8,1.9-4.4,2.4c-2.7,0.8-5.2,1-7.4,1.1C84,81.5,83.6,81.5,83.2,81.5z M61.6,62.9 c0.3,3.8,3.3,7.8,8.4,10.9c4.4,2.7,9.3,4.1,14.2,3.8c1.9-0.1,4.1-0.2,6.2-0.9c1.6-0.5,2.2-0.7,2.9-1.5c1.2-1.2,2.1-3,2.3-4.3 c0.1-0.4,0-0.6,0-0.7C95.4,70.2,95,70,94,70c-0.7,0-1.5,0.1-2.3,0.3c-2.5,0.7-4.4,1.2-6.2,1.5c-0.5,0.1-1,0.2-1.6,0.2 c-1.2,0.2-2.5,0.2-3.8,0.2c-5.8,0-11-1.7-14.9-4.9c-1.5-1.2-2.7-2.6-3.5-4.2C61.7,63.1,61.7,63,61.6,62.9z"></path> <path class="st9" d="M143.2,55.6c-6.7,1.2-9.1-0.8-13.1-2.5c7.6,5.8,4.3,15-0.7,25.8c-5,10.9,4.3,21.9,12.8,22.5l-6.9,1.1 c3.9-0.6,7.8-0.4,10.8,0.3c6.3,1.5,7.7-2.4,7.7-2.4l-12.3-11.6c-1.4-1.1-4.5-4.3-4.4-7.3c0.1-3,2.4-2,4.3-1.3 c2,0.8,4.2,1.2,6.4,1.4c6.1,0.5,14.4-1.5,17.8-8.6c3.4-7.2-0.5-16.3-3.2-19C159.6,51.2,153.6,53.7,143.2,55.6z"></path> <path class="st3" d="M151.9,100c-3.6-2-9.9-3.7-19-3.4c2.7,2.8,6.1,4.6,9.4,4.8c0,0-6.9,1.1-6.9,1.1c2.9-0.5,5.8-0.5,8.4-0.1 c0.9,0.1,1.7,0.2,2.4,0.4c0.3,0.1,0.5,0.1,0.7,0.1C150.6,102.2,154,101.2,151.9,100z"></path> <path class="st11" d="M163.8,57.1c1.4,3.6,1.1,9.4-3.3,10.3c-4.1,0.9-8.7-1-9.8-4.3c-1-3.2,1-6.7,4.7-7.9 C159.3,53.9,162.4,53.7,163.8,57.1z"></path> <path class="st3" d="M114.9,118.8c-0.3-0.1-1.7,0.1-2,0c-1.1-0.2-6.4-1-7.6-0.9c-2.8,0.2-6.5,5.5-24.5,1.3 c-13.3-3.1-17.9,6.6-17.9,6.6c11.1-4.8,14.4,1.5,34.2,3c4.8,0.4,9.8-0.1,14.1-2.4c1.6-0.9,3.2-2,4.5-3.3c0.5-0.5,1.1-1,1.2-1.7 C117,120.1,116,119.3,114.9,118.8z"></path> <path class="st4" d="M18.3,144.3c-2.4,0-4.2-1.5-5.2-4.1c-1.9-5.3,0.5-14.6,7-19.8c2.8-2.3,5-3.6,6.9-4.8 c3.9-2.4,6.7-4.1,12.6-12.7c9.1-13.4,20.4-15.1,29.1-15.1c7.9,0,15.2-2.6,19.9-6.8c-1.6,0.3-3.4,0.5-5.4,0.5 C77.8,81.5,72.7,80,68,77c-7.4-4.6-11.1-10.9-10-16.8c0.7-3.6,3.2-6.3,6.4-6.9s6.5,0.7,9.5,1.9c2.4,1,4.8,2,7.1,2l0,0 c0.8,0,1.5-0.1,2.2-0.3c0.8-0.2,1.6-0.5,2.5-0.8c4.2-1.4,9-3.1,13.4-3.1c2.9,0,5.3,0.7,7.1,2.2c2-2.8,6.3-6.7,15.1-6.2 c5.7,0.3,9,1.9,11.6,3.1c3,1.5,5.5,2.4,10.2,1.5c2.7-0.5,5.2-1.1,7.3-1.6c6.8-1.6,11-2.1,13.4,0.3c3.3,3.3,7.3,13.2,3.6,21.2 c-2.9,6.1-9.5,9.8-17.7,9.8c-0.7,0-1.3,0-1.9-0.1c-2.5-0.2-4.9-0.7-6.9-1.5c-0.6-0.2-1.2-0.5-1.7-0.6c0,0,0,0.1,0,0.1 c0,2,2.4,4.8,3.7,5.8l12.5,11.7c0.6,0.5,0.8,1.3,0.5,2c-0.5,1.5-2.6,4-6.8,4c-1,0-2-0.1-3.2-0.4c-1.7-0.4-3.9-0.6-5.9-0.6 c-6.3,0-11.4,2-13.4,5.3c-0.7,1-1.3,2.4-2,3.9c-3.5,7.4-8.8,18.9-27.3,17.4c-8.3-0.6-13.8-2.1-18.1-3.3 c-6.5-1.7-10.3-2.4-16.7,0.8c-7.4,3.7-11.7,3.3-15.5,3.1c-3-0.1-5.8-0.5-10.4,1.8c-4.5,2.2-7,4.6-9.1,6.5 c-2.5,2.3-4.6,4.3-8.4,4.6C18.7,144.3,18.3,144.3,18.3,144.3z M18.3,140.5h0.1c2.5-0.2,3.9-1.5,6.1-3.5c2.2-2.1,5-4.6,10-7.1 c5.5-2.8,8.9-2.4,12.3-2.2c3.4,0.1,6.9,0.6,13.6-2.7c3.9-1.9,7-2.8,10.2-2.8c3,0,5.8,0.7,9.2,1.7c4.2,1.1,9.4,2.5,17.4,3.2 c15.7,1.2,20.1-8,23.5-15.3c0.7-1.6,1.5-3.1,2.2-4.3c4-6.4,13-7.1,16.7-7.1c2.4,0,4.7,0.2,6.8,0.7c2.2,0.5,3.9,0.2,4.7-0.3 l-11-10.4c-1.3-1-5.1-4.8-5-8.8c0.1-2.9,1.8-3.9,3.5-3.9c1.1,0,2.2,0.4,3.2,0.8c1.9,0.7,3.9,1.1,6,1.3c0.5,0,1.1,0.1,1.6,0.1 c2.5,0,11-0.6,14.3-7.6c3.1-6.6-0.8-14.8-2.8-16.9c-0.3-0.3-0.8-0.6-2.2-0.6c-1.8,0-4.4,0.6-7.7,1.3c-2.2,0.5-4.7,1.1-7.5,1.6 c-5.8,1.1-9.4-0.3-12.5-1.8c-2.6-1.2-5.2-2.5-10.2-2.8c-10-0.5-12.6,6-12.7,6.2c-0.2,0.7-0.9,1.1-1.6,1.2 c-0.7,0.1-1.4-0.2-1.8-0.8c-1.2-1.8-3.1-2.6-5.9-2.6c-3.7,0-8.2,1.5-12.1,2.8c-0.9,0.3-1.7,0.6-2.5,0.8c-1.1,0.3-2.2,0.5-3.4,0.5 l0,0c-3.1,0-5.8-1.1-8.5-2.3c-2.7-1.1-5.1-2.2-7.4-1.7c-1.6,0.3-2.9,1.8-3.3,3.9c-0.3,1.6-0.6,7.3,8.3,12.8 c4.1,2.6,8.5,3.9,13.1,3.9c5.9,0,9.9-2.1,9.9-2.2c0.7-0.4,1.7-0.3,2.3,0.3c0.6,0.6,0.7,1.5,0.3,2.3c-4.3,8.2-14.9,13.5-27,13.5 c-8.3,0-17.9,1.6-25.9,13.4c-6.3,9.3-9.6,11.3-13.8,13.8c-1.9,1.2-3.9,2.4-6.5,4.5c-5.4,4.4-7,12-5.8,15.6 C17.3,140.5,18,140.6,18.3,140.5z"></path> <g> <path class="st1" d="M121.6,106.1c-2.5,0-5.2-0.3-8.2-1.1c-1-0.3-1.6-1.3-1.4-2.4c0.3-1,1.3-1.6,2.4-1.4c6.1,1.6,10.6,0.9,16,0 c2.5-0.4,5.2-0.9,8.2-1.1c1-0.1,2,0.7,2,1.8c0.1,1-0.7,2-1.8,2c-2.8,0.2-5.4,0.6-7.8,1C127.9,105.6,124.9,106.1,121.6,106.1z"></path> </g> <g> <path class="st4" d="M115.7,70.7c-0.9,0-1.7-0.6-1.9-1.5c-0.5-2.3-0.1-6.9,5.1-8.5c4.5-1.4,7.5,1.5,8.5,3.2 c0.5,0.9,0.2,2.1-0.7,2.6c-0.9,0.5-2.1,0.2-2.6-0.7c-0.2-0.4-1.5-2.3-4-1.5c-2.9,0.9-2.6,3.3-2.5,4c0.2,1-0.4,2-1.5,2.3 C116,70.6,115.9,70.7,115.7,70.7z"></path> </g> <g> <path class="st4" d="M157.9,81.3c-0.5,0-1-0.2-1.4-0.6c-0.7-0.8-0.7-2,0.1-2.7c5-4.8,1.4-15.8,1.4-15.9c-0.3-1,0.2-2.1,1.2-2.4 c1-0.3,2.1,0.2,2.4,1.2c0.2,0.6,4.4,13.4-2.4,19.9C158.8,81.1,158.3,81.3,157.9,81.3z"></path> </g> <path class="st12" d="M162.5,75.5c-1.5,2.1-4,4-7.7,5.2c-4.5,1.5-8.6,0.9-11.8,0c-0.9,1.8-1.5,3.9-1.5,6.1 c0,7.5,6.1,13.6,13.6,13.6c7.5,0,13.6-6.1,13.6-13.6C168.7,82.1,166.2,77.9,162.5,75.5z"></path> <path class="st13" d="M158.6,97c-2.7,0-5.3-0.9-7.4-2.6c-1-0.8-2.1-1.8-2.7-3c-0.6-1.2-0.6-4,0.7-4.9c0.8-0.5,2.2-0.6,3.1-0.7 c1.5-0.3,3-0.8,4.4-1.5c3-1.4,5.4-3.7,6.9-6.7c0-0.1,0.1-0.2,0.1-0.3c0.1-0.2,0.1-0.4,0.2-0.6c-0.5-0.5-1-0.9-1.6-1.2 c-1.5,2.1-4.1,4.1-7.9,5.4c-2.5,0.8-4.9,1-7,0.9c0-0.1,0-0.1,0.1-0.2c-1.7-0.1-3.2-0.4-4.5-0.8c0,0.1-0.1,0.2-0.1,0.2 c-0.1,0-0.3-0.1-0.4-0.1c-0.7,1.4-1.2,2.9-1.4,4.5c0.2,0,0.3,0.1,0.5,0.1c0,0.5-0.1,0.9-0.1,1.4c0,7.5,6.1,13.6,13.6,13.6 c5,0,9.4-2.7,11.7-6.8C164.7,95.7,161.8,97,158.6,97z"></path> <path class="st4" d="M155.1,102.4c-8.6,0-15.5-7-15.5-15.5c0-2.4,0.6-4.8,1.7-7c0.4-0.8,1.4-1.2,2.3-1c3.8,1.1,7.3,1.1,10.6,0 c3.8-1.2,5.8-3.2,6.8-4.5c0.6-0.8,1.8-1,2.6-0.5c4.4,2.9,7,7.7,7,13C170.6,95.4,163.6,102.4,155.1,102.4z M144.1,83 c-0.5,1.3-0.7,2.6-0.7,3.9c0,6.5,5.2,11.7,11.7,11.7c6.5,0,11.7-5.2,11.7-11.7c0-3.4-1.5-6.6-4-8.7c-1.9,1.9-4.4,3.4-7.4,4.4 C151.8,83.7,148,83.8,144.1,83z"></path> <path class="st4" d="M163.9,96.1c0-0.3,0-0.6,0.2-0.8c0.7-1.1,0.6-2.4-0.3-3.4c-1-1.1-2.6-1.8-4.3-1.8c-1,0-2,0.2-3,0.6 c-1.6,0.7-3.3,1-4.9,1c-3.1,0-5.8-1.1-7.4-3.2c-0.5-0.6-1.5-2.1-1.6-4.6c0.2-0.8,0.5-1.7,0.9-2.5c0.6,0.1,1.2,0.3,1.9,0.4 c-0.6,2.1-0.4,3.8,0.7,5.1c1.2,1.4,3.2,2.2,5.6,2.2c1.4,0,2.7-0.3,4-0.8c1.3-0.6,2.6-0.8,4-0.8c2.9,0,5.1,1.4,6.2,2.6 c0.5,0.6,0.8,1.2,1.1,2C166,93.8,165.1,95,163.9,96.1z"></path> <path class="st4" d="M164.5,55.6c0.4,2.6-0.4,7.6-4.3,9.1c-2.9,1.1-9.4-1.1-10.5-4.3c-1.1-3.2,2.1-5.3,6.2-6.7 C159.9,52.3,164.1,52.5,164.5,55.6z"></path> <path class="st14" d="M152.1,59.6c1-0.8,2.6-1.6,4.1-2.2c1.2-0.5,2.6-1,3.9-1c2.3,0,1.9,2.4,1.6,4c0.7-1.1,1-2.6,1-3.9 c0-0.5,0.1-1.1-0.2-1.5s-1-0.4-1.5-0.4c-1.1,0-2.6,0.4-4,0.9c-2.6,1-5.4,2.6-5,3.8C152,59.4,152.1,59.5,152.1,59.6z"></path> <path class="st6" d="M111.6,101.9c0,0,21.4,1.8,30.9,10.6c9.5,8.9,7.7,21-8.9,14c-16.7-7-34.3-7.2-34.3-7.2"></path> <path class="st7" d="M142.5,112.6c-3.1-2.9-7-4.8-10.9-6.2c-4.8-1.8-9.9-3-15-3.8c-1.4-0.2-2.9-0.4-4.3-0.6 c-0.6-0.1-0.7-0.1-1,0.5c-0.4,1-1.1,2.9,0.4,3.3c0.7,0.2,1.6,0.2,2.4,0.3c1.1,0.2,2.2,0.3,3.2,0.5c2.7,0.5,5.4,1.1,8,1.8 c5.6,1.6,11.5,3.8,15.8,7.8c3.8,3.6,5.8,7.6,5.7,10.8C149.7,124.1,148.1,117.8,142.5,112.6z"></path> <path class="st5" d="M99.3,119.4c0,0,17.7,0.2,34.3,7.2c5.8,2.5,9.8,2.5,12.1,1.3c-0.2-0.2-0.3-0.3-0.5-0.6 c-11.1-10.4-26-11.1-33.1-13.6c-4.2-1.5-4-5.3-3.1-8.2L99.3,119.4z"></path> <path class="st9" d="M126.4,124L126.4,124c2.4,0.7,4.8,1.5,7.2,2.5c16.7,7,18.4-5.1,8.9-14c-4.4-4.1-11.3-6.7-17.5-8.2 C137.8,107.7,139.8,122.3,126.4,124z"></path> <path class="st3" d="M137,127.8c0.6,0.2,1.1,0.3,1.7,0.5c0.2,0,0.5,0.1,0.7,0.1c0.6,0.1,1.2,0.2,1.8,0.2c0.3,0,0.6,0,0.9,0 c0.2,0,0.5,0,0.7,0c1.2-0.1,2.2-0.3,3-0.8c-0.2-0.2-0.3-0.3-0.5-0.6c-3.5-3.2-7.3-5.5-11.1-7.2c-1.4,1.9-3.9,3.4-7.6,4 c2.3,0.7,4.7,1.6,7.1,2.6c0.9,0.4,1.8,0.7,2.6,1C136.5,127.7,136.7,127.7,137,127.8z"></path> <path class="st4" d="M142.1,130.6c-2.3,0-5.3-0.6-9.3-2.3c-16.1-6.8-33.4-7.1-33.6-7.1c-1.1,0-1.9-0.9-1.9-1.9 c0-1.1,0.9-1.8,1.9-1.9c0.7,0,18.3,0.3,35.1,7.4c6.8,2.9,10.4,2.2,11.4,0.5c1.4-2.1,0-6.9-4.6-11.3c-8.9-8.3-29.6-10.1-29.8-10.2 c-1-0.1-1.8-1-1.8-2.1c0.1-1.1,1-1.8,2.1-1.8c0.9,0.1,22.2,1.9,32.1,11.2c5.8,5.4,7.9,12.1,5.2,16.2 C148.1,128.8,146.1,130.6,142.1,130.6z"></path> </g> </g> <g class="st15"> <path class="st16" d="M271.2,123.4h-17.8l-13.6-21.1v21.1h-14.3V68.5h22.2c3.1,0,5.7,0.5,8,1.4c2.3,0.9,4.2,2.1,5.7,3.7 c1.5,1.6,2.6,3.4,3.4,5.4c0.8,2,1.1,4.2,1.1,6.6c0,4.2-1,7.6-3,10.2c-2,2.6-5,4.4-8.9,5.3L271.2,123.4z M239.8,93h2.7 c2.8,0,5-0.6,6.5-1.7c1.5-1.2,2.3-2.8,2.3-5s-0.8-3.9-2.3-5c-1.5-1.2-3.7-1.7-6.5-1.7h-2.7V93z"></path> <path class="st16" d="M272.3,71.7c0-1,0.2-2,0.6-2.9c0.4-0.9,0.9-1.7,1.6-2.4c0.7-0.7,1.5-1.2,2.4-1.6s1.9-0.6,2.9-0.6 c1,0,2,0.2,2.9,0.6s1.7,0.9,2.4,1.6c0.7,0.7,1.2,1.5,1.6,2.4s0.6,1.9,0.6,2.9s-0.2,2-0.6,2.9c-0.4,0.9-0.9,1.7-1.6,2.4 c-0.7,0.7-1.5,1.2-2.4,1.6s-1.9,0.6-2.9,0.6c-1,0-2-0.2-2.9-0.6s-1.7-0.9-2.4-1.6c-0.7-0.7-1.2-1.5-1.6-2.4 C272.5,73.7,272.3,72.7,272.3,71.7z M286.3,86v37.4h-13.2V86H286.3z"></path> <path class="st16" d="M305.8,142.1h-13.2V86h13.2v4.2c2.8-3.5,6.7-5.3,11.5-5.3c2.7,0,5.2,0.5,7.5,1.6c2.3,1,4.3,2.5,6,4.3 c1.7,1.8,3,3.9,4,6.3c0.9,2.4,1.4,5,1.4,7.8s-0.5,5.3-1.4,7.7c-0.9,2.4-2.3,4.5-3.9,6.3c-1.7,1.8-3.6,3.2-5.9,4.2 c-2.3,1-4.8,1.5-7.4,1.5c-4.6,0-8.5-1.6-11.7-4.8V142.1L305.8,142.1z M322.4,104.8c0-1.2-0.2-2.3-0.6-3.3c-0.4-1-1-1.9-1.8-2.7 c-0.8-0.8-1.7-1.4-2.7-1.9c-1-0.5-2.2-0.7-3.4-0.7c-1.2,0-2.3,0.2-3.3,0.7c-1,0.5-1.9,1-2.7,1.8c-0.8,0.8-1.4,1.7-1.8,2.7 c-0.5,1-0.7,2.2-0.7,3.3c0,1.2,0.2,2.3,0.7,3.3c0.5,1,1,1.9,1.8,2.7s1.7,1.4,2.7,1.8c1,0.5,2.2,0.7,3.3,0.7c1.2,0,2.3-0.2,3.3-0.7 c1-0.5,1.9-1,2.7-1.8c0.8-0.8,1.4-1.7,1.8-2.7C322.1,107,322.4,105.9,322.4,104.8z"></path> <path class="st16" d="M354.1,142.1h-13.2V86h13.2v4.2c2.8-3.5,6.7-5.3,11.5-5.3c2.7,0,5.2,0.5,7.5,1.6c2.3,1,4.3,2.5,6,4.3 c1.7,1.8,3,3.9,4,6.3c0.9,2.4,1.4,5,1.4,7.8s-0.5,5.3-1.4,7.7c-0.9,2.4-2.3,4.5-3.9,6.3s-3.6,3.2-5.9,4.2c-2.3,1-4.8,1.5-7.4,1.5 c-4.6,0-8.5-1.6-11.7-4.8L354.1,142.1L354.1,142.1z M370.7,104.8c0-1.2-0.2-2.3-0.6-3.3c-0.4-1-1-1.9-1.8-2.7 c-0.8-0.8-1.7-1.4-2.7-1.9c-1-0.5-2.2-0.7-3.4-0.7c-1.2,0-2.3,0.2-3.3,0.7c-1,0.5-1.9,1-2.7,1.8s-1.4,1.7-1.8,2.7 c-0.5,1-0.7,2.2-0.7,3.3c0,1.2,0.2,2.3,0.7,3.3c0.5,1,1,1.9,1.8,2.7c0.8,0.8,1.7,1.4,2.7,1.8c1,0.5,2.2,0.7,3.3,0.7 c1.2,0,2.3-0.2,3.3-0.7c1-0.5,1.9-1,2.7-1.8s1.4-1.7,1.8-2.7C370.5,107,370.7,105.9,370.7,104.8z"></path> <path class="st16" d="M402.4,63v60.5h-13.2V63H402.4z"></path> <path class="st16" d="M420.5,106.9c0,5.7,2.7,8.5,8,8.5c2.9,0,5-1.2,6.5-3.5h12.8c-2.6,8.5-9,12.8-19.3,12.8c-3.2,0-6-0.5-8.7-1.4 c-2.6-0.9-4.9-2.3-6.7-4.1c-1.9-1.7-3.3-3.9-4.3-6.3c-1-2.4-1.5-5.1-1.5-8.2c0-3.1,0.5-5.9,1.5-8.4c1-2.5,2.4-4.6,4.2-6.4 c1.8-1.7,4-3.1,6.5-4.1c2.5-0.9,5.4-1.4,8.6-1.4c3.2,0,6,0.5,8.5,1.4c2.5,0.9,4.6,2.3,6.4,4.1c1.7,1.8,3.1,4,4,6.6 c0.9,2.6,1.4,5.5,1.4,8.8v1.4L420.5,106.9L420.5,106.9z M436,99.3c-0.5-1.8-1.4-3.3-2.7-4.4c-1.4-1.1-3-1.7-5-1.7 c-2,0-3.7,0.5-5,1.6c-1.3,1.1-2.1,2.6-2.4,4.5H436z"></path> <path class="st16" d="M468.5,123.4h-14.3V68.5H477c6.2,0,10.9,1.6,14.2,4.8c3.3,3.2,4.9,7.7,4.9,13.6s-1.6,10.3-4.9,13.6 c-3.3,3.2-8,4.8-14.2,4.8h-8.5V123.4z M468.5,93.7h4.8c5.2,0,7.9-2.3,7.9-6.8c0-4.6-2.6-6.8-7.9-6.8h-4.8V93.7z"></path> <path class="st16" d="M497.1,104.4c0-2.8,0.6-5.3,1.7-7.8c1.1-2.4,2.7-4.5,4.6-6.3c2-1.8,4.4-3.2,7.1-4.2c2.7-1,5.8-1.5,9-1.5 c3.2,0,6.2,0.5,8.9,1.5c2.7,1,5.1,2.4,7.1,4.2c2,1.8,3.6,3.9,4.7,6.3c1.1,2.5,1.7,5.2,1.7,8.1s-0.6,5.7-1.7,8.1 c-1.1,2.5-2.7,4.6-4.7,6.3c-2,1.8-4.4,3.2-7.2,4.1c-2.8,1-5.8,1.5-9.1,1.5c-3.2,0-6.2-0.5-8.9-1.5c-2.7-1-5.1-2.4-7-4.2 c-2-1.8-3.5-4-4.6-6.5C497.6,110.2,497.1,107.5,497.1,104.4z M511,104.6c0,1.2,0.2,2.4,0.7,3.5c0.5,1,1.1,1.9,1.8,2.7 c0.8,0.8,1.7,1.4,2.7,1.8c1,0.5,2.2,0.7,3.3,0.7c1.2,0,2.3-0.2,3.3-0.7c1-0.5,1.9-1,2.7-1.8s1.4-1.7,1.8-2.7c0.5-1,0.7-2.2,0.7-3.4 c0-1.2-0.2-2.3-0.7-3.3c-0.5-1-1.1-1.9-1.8-2.7c-0.8-0.8-1.7-1.4-2.7-1.8c-1-0.5-2.2-0.7-3.3-0.7c-1.2,0-2.3,0.2-3.3,0.7 c-1,0.5-1.9,1-2.7,1.8c-0.8,0.8-1.4,1.7-1.8,2.7C511.2,102.3,511,103.4,511,104.6z"></path> <path class="st16" d="M559.9,142.1h-13.2V86h13.2v4.2c2.8-3.5,6.7-5.3,11.5-5.3c2.7,0,5.2,0.5,7.5,1.6c2.3,1,4.3,2.5,6,4.3 c1.7,1.8,3,3.9,4,6.3c0.9,2.4,1.4,5,1.4,7.8s-0.5,5.3-1.4,7.7c-0.9,2.4-2.3,4.5-3.9,6.3s-3.6,3.2-5.9,4.2c-2.3,1-4.8,1.5-7.4,1.5 c-4.6,0-8.5-1.6-11.7-4.8V142.1z M576.5,104.8c0-1.2-0.2-2.3-0.6-3.3c-0.4-1-1-1.9-1.8-2.7c-0.8-0.8-1.7-1.4-2.7-1.9 c-1-0.5-2.2-0.7-3.4-0.7c-1.2,0-2.3,0.2-3.3,0.7c-1,0.5-1.9,1-2.7,1.8s-1.4,1.7-1.8,2.7c-0.5,1-0.7,2.2-0.7,3.3 c0,1.2,0.2,2.3,0.7,3.3c0.5,1,1,1.9,1.8,2.7s1.7,1.4,2.7,1.8c1,0.5,2.2,0.7,3.3,0.7c1.2,0,2.3-0.2,3.3-0.7c1-0.5,1.9-1,2.7-1.8 s1.4-1.7,1.8-2.7C576.3,107,576.5,105.9,576.5,104.8z"></path> </g> <g> </g> <g> </g> <g> </g> <g> </g> <g> </g> <g> </g> </svg> 